<svg width="28" height="26" viewBox="0 0 28 26" fill="none" xmlns="http://www.w3.org/2000/svg">
<path d="M17.5 21.9586V13.6253C17.5 13.349 17.3771 13.0841 17.1583 12.8887C16.9395 12.6934 16.6428 12.5836 16.3333 12.5836H11.6667C11.3572 12.5836 11.0605 12.6934 10.8417 12.8887C10.6229 13.0841 10.5 13.349 10.5 13.6253V21.9586" stroke="#55B685" stroke-width="0.962768" stroke-linecap="round" stroke-linejoin="round"/>
<path d="M3.5 10.5003C3.49992 10.1972 3.57389 9.8978 3.71675 9.62289C3.85962 9.34799 4.06793 9.10423 4.32717 8.9086L12.4938 2.65965C12.915 2.34184 13.4486 2.16748 14 2.16748C14.5514 2.16748 15.085 2.34184 15.5062 2.65965L23.6728 8.9086C23.9321 9.10423 24.1404 9.34799 24.2832 9.62289C24.4261 9.8978 24.5001 10.1972 24.5 10.5003V19.8753C24.5 20.4278 24.2542 20.9577 23.8166 21.3484C23.379 21.7391 22.7855 21.9586 22.1667 21.9586H5.83333C5.21449 21.9586 4.621 21.7391 4.18342 21.3484C3.74583 20.9577 3.5 20.4278 3.5 19.8753V10.5003Z" stroke="#55B685" stroke-width="0.962768" stroke-linecap="round" stroke-linejoin="round"/>
</svg>
