<svg width="11" height="12" viewBox="0 0 11 12" fill="none" xmlns="http://www.w3.org/2000/svg">
<path d="M10.6863 7.85661L8.28001 6.82534C8.17721 6.78153 8.06297 6.7723 7.95447 6.79904C7.84598 6.82577 7.7491 6.88703 7.67843 6.97358L6.61279 8.27556C4.94036 7.48703 3.59444 6.14111 2.80591 4.46868L4.10788 3.40303C4.19461 3.33249 4.256 3.23562 4.28275 3.12707C4.3095 3.01853 4.30015 2.90422 4.25613 2.80146L3.22486 0.395167C3.17654 0.284394 3.09109 0.193951 2.98323 0.139434C2.87538 0.0849169 2.75188 0.0697432 2.63403 0.0965291L0.399616 0.612163C0.285998 0.6384 0.184628 0.702373 0.112051 0.793641C0.0394729 0.88491 -2.61729e-05 0.998084 1.30116e-08 1.11469C1.30116e-08 6.62553 4.46668 11.0836 9.96892 11.0836C10.0856 11.0837 10.1988 11.0442 10.2901 10.9716C10.3814 10.8991 10.4454 10.7977 10.4717 10.684L10.9873 8.44959C11.0139 8.33117 10.9984 8.20717 10.9435 8.09894C10.8885 7.99072 10.7976 7.90502 10.6863 7.85661Z" fill="#55B685"/>
</svg>
