<svg width="63" height="62" viewBox="0 0 63 62" fill="none" xmlns="http://www.w3.org/2000/svg">
<path d="M53.5641 8.94768C47.6719 3.22893 39.825 0.0836182 31.4859 0.0836182C14.2734 0.0836182 0.267188 13.6452 0.267188 30.3113C0.267188 35.6352 1.70156 40.8365 4.42969 45.4251L0 61.0836L16.5516 56.8763C21.1078 59.2863 26.2406 60.5526 31.4719 60.5526H31.4859C48.6844 60.5526 63 46.991 63 30.3249C63 22.2506 59.4562 14.6664 53.5641 8.94768ZM31.4859 55.4602C26.8172 55.4602 22.2469 54.2483 18.2672 51.9608L17.325 51.4162L7.50938 53.9079L10.125 44.6354L9.50625 43.6823C6.90469 39.6792 5.54063 35.0633 5.54063 30.3113C5.54063 16.4638 17.1844 5.18964 31.5 5.18964C38.4328 5.18964 44.9437 7.80393 49.8375 12.5559C54.7313 17.3079 57.7406 23.6122 57.7266 30.3249C57.7266 44.1861 45.7875 55.4602 31.4859 55.4602ZM45.7172 36.6428C44.9438 36.2615 41.1047 34.437 40.3875 34.1919C39.6703 33.9332 39.15 33.8106 38.6297 34.5731C38.1094 35.3356 36.6188 37.024 36.1547 37.5414C35.7047 38.0452 35.2406 38.1133 34.4672 37.7321C29.8828 35.5126 26.8734 33.7698 23.85 28.7454C23.0484 27.4111 24.6516 27.5064 26.1422 24.6198C26.3953 24.116 26.2687 23.6803 26.0719 23.299C25.875 22.9178 24.3141 19.2006 23.6672 17.6892C23.0344 16.2187 22.3875 16.4229 21.9094 16.3957C21.4594 16.3684 20.9391 16.3684 20.4187 16.3684C19.8984 16.3684 19.0547 16.5591 18.3375 17.3079C17.6203 18.0704 15.6094 19.895 15.6094 23.6122C15.6094 27.3294 18.4078 30.924 18.7875 31.4278C19.1813 31.9316 24.2859 39.5566 32.1187 42.8381C37.0687 44.9077 39.0094 45.0847 41.4844 44.7307C42.9891 44.5129 46.0969 42.9062 46.7437 41.1361C47.3906 39.366 47.3906 37.8546 47.1938 37.5414C47.0109 37.201 46.4906 37.0104 45.7172 36.6428Z" fill="#55B685"/>
</svg>
